<?xml version="1.0" ?><svg id="Layer_1_1_" style="enable-background:new 0 0 64 64;" version="1.1" viewBox="0 0 64 64" xml:space="preserve" xmlns="http://www.w3.org/2000/svg" xmlns:xlink="http://www.w3.org/1999/xlink"><g><g><path d="M58,30H26v28h16.674h12.651H60c1.105,0,2-0.895,2-2V32c0-1.105-0.895-2-2-2H58z" style="fill:#FCD770;"/><rect height="14" style="fill:#AAB2BD;" width="32" x="26" y="26"/><rect height="2" style="fill:#969FAA;" width="32" x="26" y="26"/><path d="M42.674,52H26v6h16.674h12.651H60c1.105,0,2-0.895,2-2v-4h-6.674H42.674z" style="fill:#FFEAA7;"/><path d="M26,58H4c-1.105,0-2-0.895-2-2V43.883c0-1.722,1.102-3.25,2.735-3.795L8,39l2.088-6.265    C10.633,31.102,12.161,30,13.883,30H26V58z" style="fill:#FCD770;"/><path d="M2,56c0,1.105,0.895,2,2,2h22v-6H2V56z" style="fill:#FFEAA7;"/><path d="M22,52V34h-7.279c-0.43,0-0.813,0.275-0.949,0.684l-1.721,5.162C12.017,39.948,12,40.055,12,40.162    V52H22z" style="fill:#E6E9ED;"/><rect height="12" style="fill:#CF9E76;" width="32" x="26" y="40"/><rect height="8" style="fill:#ECC19C;" width="12" x="36" y="44"/><circle cx="15" cy="55" r="7" style="fill:#656D78;"/><circle cx="15" cy="55" r="3" style="fill:#838F9B;"/><circle cx="49" cy="55" r="7" style="fill:#656D78;"/><circle cx="49" cy="55" r="3" style="fill:#838F9B;"/><polygon points="53.343,18 60,18 60,26 24,26 24,18 31.005,18   " style="fill:#E6E9ED;"/><path d="M14.721,34c-0.43,0-0.813,0.275-0.949,0.684l-1.721,5.162c-0.017,0.05-0.016,0.103-0.025,0.154H22    v-6H14.721z" style="fill:#CCD1D9;"/><rect height="4" style="fill:#DFB28B;" width="32" x="26" y="40"/><path d="M31.005,18h-2.381c2.079,3.581,5.946,6,10.377,6c1.949,0,3.785-0.477,5.414-1.305    C45.901,23.541,47.585,24,49.343,24c2.672,0,5.183-1.04,7.071-2.929l1.414-1.414L56.171,18h-2.828H31.005z" style="fill:#CCD1D9;"/><circle cx="39" cy="12" r="10" style="fill:#FC6E51;"/><rect height="14" style="fill:#CF9E76;" width="4" x="26" y="26"/><rect height="14" style="fill:#CF9E76;" width="4" x="54" y="26"/><path d="M55,19.657c-3.124,3.124-8.19,3.124-11.314,0s-3.124-8.19,0-11.314L55,19.657z" style="fill:#FFC729;"/><polygon points="34,40 34,34 42,34 44,40   " style="fill:#FCD770;"/><rect height="2" style="fill:#B27946;" width="4" x="54" y="38"/><rect height="2" style="fill:#B27946;" width="4" x="54" y="26"/><rect height="2" style="fill:#B27946;" width="4" x="26" y="38"/><rect height="2" style="fill:#B27946;" width="4" x="26" y="26"/><rect height="22" style="fill:#FFC729;" width="2" x="24" y="30"/><rect height="22" style="fill:#FFC729;" width="2" x="58" y="30"/></g><g><path d="M15,51c-2.206,0-4,1.794-4,4s1.794,4,4,4s4-1.794,4-4S17.206,51,15,51z M15,57c-1.103,0-2-0.897-2-2s0.897-2,2-2    s2,0.897,2,2S16.103,57,15,57z"/><path d="M49,51c-2.206,0-4,1.794-4,4s1.794,4,4,4s4-1.794,4-4S51.206,51,49,51z M49,57c-1.103,0-2-0.897-2-2s0.897-2,2-2    s2,0.897,2,2S50.103,57,49,57z"/><path d="M60,29h-1v-2h2V17h-7.243l-3.827-3.827C49.972,12.784,50,12.392,50,12c0-6.065-4.935-11-11-11S28,5.935,28,12    c0,1.801,0.444,3.498,1.214,5H23v10h2v2H13.883c-2.155,0-4.062,1.374-4.743,3.419l-1.93,5.79L4.418,39.14    C2.374,39.821,1,41.728,1,43.883V56c0,1.654,1.346,3,3,3h4.082c1.386,2.387,3.964,4,6.918,4s5.532-1.613,6.918-4h20.165    c1.386,2.387,3.964,4,6.918,4s5.532-1.613,6.918-4H60c1.654,0,3-1.346,3-3V32C63,30.346,61.654,29,60,29z M60,31    c0.551,0,1,0.448,1,1v19h-2V31H60z M49,47v-2h8v6h-1.082C54.532,48.613,51.953,47,49,47z M53,27v12h-8.279l-2-6H33v6h-2V27H53z     M35,39v-4h2v4H35z M39,35h2.279l1.333,4H39V35z M57,41v2H27v-2H57z M27,45h8v6h-8V45z M37,45h10v2.263    c-2.095,0.542-3.856,1.909-4.918,3.737H37V45z M57,39h-2V27h2V39z M44.394,18.95c-2.489-2.489-2.708-6.402-0.657-9.143    l9.799,9.799C50.795,21.659,46.883,21.438,44.394,18.95z M39,3c4.693,0,8.554,3.612,8.96,8.202l-4.273-4.273l-0.707,0.707    c-3.444,3.444-3.499,9.004-0.183,12.526C41.615,20.713,40.323,21,39,21c-4.962,0-9-4.037-9-9S34.038,3,39,3z M25,19h5.521    c2.019,2.441,5.07,4,8.479,4c1.925,0,3.794-0.501,5.451-1.448c1.483,0.961,3.187,1.444,4.892,1.444    c2.305,0,4.609-0.877,6.364-2.632l0.707-0.707L55.757,19H59v6H25V19z M29,27v12h-2V27H29z M5.051,41.036l3.74-1.245l2.247-6.739    C11.446,31.824,12.59,31,13.883,31H25v20h-2V33h-8.279c-0.862,0-1.625,0.55-1.897,1.367l-1.721,5.162    C11.035,39.733,11,39.946,11,40.162v7.92C9.791,48.784,8.784,49.791,8.082,51H3v-7.117C3,42.59,3.824,41.446,5.051,41.036z M21,39    h-7.613l1.333-4H21V39z M13,41h8v8.726C19.533,48.059,17.39,47,15,47c-0.692,0-1.359,0.097-2,0.263V41z M4,57    c-0.551,0-1-0.448-1-1v-3h4.263C7.097,53.641,7,54.308,7,55s0.097,1.359,0.263,2H4z M15,61c-3.309,0-6-2.691-6-6s2.691-6,6-6    s6,2.691,6,6S18.309,61,15,61z M22.737,57C22.903,56.359,23,55.692,23,55s-0.097-1.359-0.263-2h18.527    C41.097,53.641,41,54.308,41,55s0.097,1.359,0.263,2H22.737z M49,61c-3.309,0-6-2.691-6-6s2.691-6,6-6s6,2.691,6,6    S52.309,61,49,61z M60,57h-3.263C56.903,56.359,57,55.692,57,55s-0.097-1.359-0.263-2H61v3C61,56.552,60.551,57,60,57z"/><path d="M39,19v-2c-2.757,0-5-2.243-5-5h-2C32,15.859,35.14,19,39,19z"/><rect height="2" width="4" x="29" y="47"/><rect height="2" width="2" x="39" y="47"/></g></g></svg>