<?xml version="1.0" ?><svg id="Layer_1" style="enable-background:new 0 0 512 512;" version="1.1" viewBox="0 0 512 512" xml:space="preserve" xmlns="http://www.w3.org/2000/svg" xmlns:xlink="http://www.w3.org/1999/xlink"><style type="text/css">
	.st0{opacity:0.33;}
	.st1{fill:#96D7FF;}
	.st2{fill:#FFFFFF;}
	.st3{fill:#AEB6BA;}
	.st4{fill:#FF99B1;}
	.st5{fill:#2866AE;}
</style><g class="st0"><path class="st1" d="M504.7,194.6c-7.3-49.7-44.8-89.6-94.1-100c-17-3.6-32.4-12.8-43.6-26.2   C330.9,25.8,273.9,7.1,219.6,20C165.3,33,123,75.4,110,129.8c-5.9,23.7-21.7,43.6-43.5,54.7C9.8,213.9-18.5,290.3,33.1,362   c6.8,8.5,15.5,15.3,25.4,19.6c18.2,9.1,32.5,24.6,40,43.5c13.1,32,40,56.3,73.1,66.1c33.1,9.8,69,4.1,97.4-15.6   c19.4-13.6,43.7-17.8,66.6-11.7c38.8,10.6,80.3,0.2,109.7-27.4c29.3-27.5,42.3-68.3,34.3-107.7c-3.7-19.4-0.1-39.6,10-56.5   C503.3,248.9,508.7,221.5,504.7,194.6L504.7,194.6z" id="Shape"/><g><path class="st2" d="M460.2,278.9c-2.1-0.9-4.6-0.4-6.2,1.2c-1,1.1-1.6,2.5-1.6,4c0,0.7,0.1,1.5,0.4,2.1c0.3,0.8,0.7,1.3,1.2,1.9    c0.5,0.5,1.2,0.9,1.9,1.2c0.7,0.3,1.4,0.5,2.1,0.5l0,0c1.5,0,3-0.6,4-1.6c0.5-0.5,0.8-1.2,1.2-1.8c0.3-0.7,0.4-1.4,0.4-2.1    C463.7,281.8,462.3,279.7,460.2,278.9z"/><path class="st2" d="M446.7,301.1h-33.9c-3.1,0-5.7,2.5-5.7,5.7c0,3.1,2.5,5.6,5.7,5.6h33.9c3.1,0,5.7-2.6,5.7-5.6    C452.4,303.6,449.9,301.1,446.7,301.1z"/><path class="st2" d="M395.8,289.8h39.6c3.1,0,5.7-2.5,5.7-5.6s-2.5-5.7-5.7-5.7h-39.6c-3.1,0-5.6,2.6-5.6,5.7    C390.2,287.2,392.7,289.8,395.8,289.8z"/><path class="st2" d="M395.8,306.7c0-3.1-2.6-5.7-5.6-5.7h-11.3c-3.1,0-5.7,2.5-5.7,5.7c0,3.1,2.5,5.6,5.7,5.6h11.3    C393.3,312.4,395.8,309.8,395.8,306.7z"/><path class="st2" d="M435.4,323.7h-45.3c-3.1,0-5.7,2.5-5.7,5.7c0,3.1,2.5,5.6,5.7,5.6h45.3c3.1,0,5.7-2.6,5.7-5.6    C441.1,326.2,438.6,323.7,435.4,323.7z"/></g><g><path class="st2" d="M94,272.7c-0.6,0.3-1.2,0.7-1.7,1.2c-0.6,0.5-1,1.1-1.2,1.8c-0.6,1.3-0.6,2.8,0,4.1c0.3,0.6,0.7,1.3,1.2,1.7    c1,1.1,2.3,1.7,3.8,1.7v0.1c0.7,0,1.4-0.2,2.1-0.5c0.6-0.3,1.3-0.7,1.7-1.2c0.5-0.5,0.9-1,1.2-1.8c0.2-0.7,0.4-1.3,0.4-2.1    c0-1.4-0.6-2.8-1.6-3.9C98.4,272.4,96,271.9,94,272.7z"/><path class="st2" d="M101.6,250.5h-11c-3,0-5.5,2.4-5.5,5.5c0,3,2.5,5.4,5.4,5.4h11l0,0c3,0,5.4-2.5,5.4-5.4    C107,252.9,104.6,250.5,101.6,250.5z"/><path class="st2" d="M117.9,228.6H63.3c-3,0-5.5,2.5-5.5,5.5s2.4,5.4,5.5,5.4h54.6c3,0,5.5-2.4,5.5-5.4    C123.4,231.1,120.9,228.6,117.9,228.6z"/><path class="st2" d="M46.9,261.4h21.8c3,0,5.5-2.5,5.5-5.4c0-3-2.4-5.5-5.5-5.5H46.9c-3,0-5.4,2.4-5.4,5.5    C41.5,258.9,44,261.4,46.9,261.4z"/><path class="st2" d="M74.3,272.3H30.6c-3,0-5.5,2.4-5.5,5.5c0,3,2.4,5.5,5.5,5.5h43.7c3,0,5.4-2.4,5.4-5.5    C79.7,274.7,77.2,272.3,74.3,272.3z"/></g></g><g><path class="st3" d="M129.3,359.3l-0.1-0.4c-2-6-6.6-21.6-6-36.4c1-24.6,8.9-40.4,12.2-46.2c6.2-11,14.2-20.8,23.7-29   c8.4-7,17.8-12.6,28.1-16.6h0.1c9.6-4,19.7-6.4,30-7.1V258c-8.6-1.6-25.1-2.6-39.4,7.9l-0.1,0.1c-12.4,9.6-21.1,20-23.4,40v0.5   c-0.1,16.5,5,30.3,14.8,40.3c2.3,2.4,4.8,4.5,7.6,6.5l0.1,0.1c1.8,1.2,3.5,2.2,5.2,3.1c0.3,0.3,0.5,0.7,0.8,1   c2.9,3.6,6.4,6.9,10.3,9.6l0.1,0.1c2,1.3,3.9,2.5,5.9,3.5c0,0,0.1,0,0.1,0c0.5,0.2,0.9,0.5,1.4,0.7c0.2,0.1,0.5,0.3,0.7,0.4   c0.1,0,0.2,0.1,0.3,0.1c7.3,3.6,14.4,5.4,21.8,5.4c7.2,0,14.7-1.7,23.1-5.1c12.4-5,22.8-16.3,27.7-30.3c2.8-8.2,2.8-16.4,2.8-24.3   V100.4h33.3c2.3,10.2,7.5,24,19.5,37.7l0.1,0.1c5.2,5.6,11.1,10.6,17.4,14.8c3.1,3.3,12.3,12.5,24.2,18.4c5.5,2.8,11.2,5,17.1,6.6   v36.4c-6.8-0.5-19.4-1.7-29.4-4.4c-19.9-5.3-33-13.5-33.1-13.5c-2.9-1.9-9.5-6.3-10.3-6.7l-6.7-3.9v0.1l-0.2-0.1v125.4   c0,6.9-1.8,22.4-6.7,35c-6,15.7-14.9,26.4-17.9,29.9c-0.3,0.3-0.5,0.6-0.7,0.8c0,0-0.5,0.6-1.3,1.5c-3.8,4.2-15.2,15.5-32.5,23.7   c-17.9,8.4-33.7,8.9-40.4,9.1c-0.6,0.1-1.2,0.1-1.6,0.1c-0.3,0-29.7,1-56.1-16.8h-0.1c-2.6-2.7-5.2-5.6-7.6-8.9   c-4.6-5.9-8.2-12.2-10.7-17.4C131.2,364,129.8,360.6,129.3,359.3z"/><path class="st1" d="M325.5,100.4c0,4.9,0.8,12.7,3.9,22.1c-5.1-8.1-8-15.8-9.6-22.1H325.5z"/><path class="st1" d="M229.6,358.4c12.4-5,22.8-16.3,27.7-30.3c2.9-8.1,2.9-16.2,2.9-24V86.4h48.6c0,1.4,0.1,3.1,0.3,5H268h-0.1V318   c0,7.3,0,14.3-2.3,21c-4,11.5-12.5,20.8-22.6,24.9c-14.6,5.8-25.8,5.8-38.2-0.5C212.6,363.7,220.7,362,229.6,358.4z"/><path class="st1" d="M234.2,223.7v48.5c-8.7-1.6-25.2-2.6-39.5,7.9l-0.1,0.1c-12.4,9.6-21.1,20-23.4,40v0.5c0,6,0.7,11.7,2,16.9   c-2.5-3.1-4.5-6.6-6.1-10.4c0-0.1-0.1-0.2-0.1-0.3c-0.2-0.6-0.5-1.2-0.7-1.9c-0.1-0.3-0.2-0.5-0.3-0.8c-0.2-0.5-0.3-1-0.4-1.5   c-0.2-0.8-0.4-1.5-0.6-2.3c0-0.1-0.1-0.3-0.1-0.4c-0.6-2.6-1-5.3-1.2-8.2c0-0.1,0-0.3,0-0.4c0-0.6-0.1-1.3-0.1-1.9   c0-0.8,0-1.6,0-2.5c0.1-0.8,0.2-1.5,0.3-2.3c0-0.2,0-0.3,0.1-0.5c0-0.1,0-0.1,0-0.2c2.1-13.1,7.4-21.4,19.5-30.7   c11.6-8.4,25.5-7.5,32.6-6.3c2.7,0.5,4.4,1,4.5,1.1l5.9,2v0l0.1,0v-46.8v-0.1C229.2,223.3,231.8,223.4,234.2,223.7z"/><path class="st1" d="M112.7,345.7l-0.3-0.7c-2-6.1-6.6-21.7-6-36.5c1-24.5,8.9-40.4,12.2-46.2c6.2-11.1,14.2-20.9,23.7-29.1   c8.4-7,17.8-12.6,28.1-16.6h0.1c6.4-2.6,13-4.6,19.8-5.8c9-1.5,18.1-1.8,27.2-0.9v4.5c-11.6,0.7-22.9,3.3-33.6,7.8   c-11.2,4.3-21.5,10.4-30.7,18.2c-0.5,0.4-0.9,0.8-1.4,1.3c-9.8,8.7-18,18.8-24.4,30.2c-3.6,6.3-12.2,23.8-13.3,50.3   c-0.6,15.4,3.6,31,6.3,39.2l0.2,0.6c0,0,0.1,0.1,0.1,0.2C116.9,355.7,114.1,349.5,112.7,345.7z"/><path class="st4" d="M325.7,325.4c0,6.8-1.8,22.3-6.7,34.9c-6,15.7-14.9,26.4-17.9,29.9c-0.3,0.3-0.5,0.6-0.7,0.8   c-0.1,0.2-12.5,15.2-33.9,25.3c-17.9,8.4-33.7,8.9-40.4,9.1c-0.6,0.1-1.2,0.1-1.6,0.1c-0.2,0-17.1,0.5-36.7-6.9   c2.7,0.5,5.2,0.9,7.5,1.1c0.2,0,0.5,0.1,0.7,0.1c0.1,0,0.3,0,0.4,0c6.8,0.8,11.2,0.6,11.8,0.7c0.4-0.1,0.9-0.1,1.5-0.1   c6.6-0.2,24.3-0.8,43.9-10c23.3-11,36.5-27.1,37.1-27.8c0.2-0.2,0.4-0.5,0.7-0.8c3.2-3.9,12.9-15.5,19.4-32.4   c5.3-13.8,7.3-30.8,7.3-38.2V201.9c1,0.7,2.1,1.4,3.1,2.1c0.1,0.1,1.7,1.1,4.5,2.6V325.4z"/><path class="st4" d="M405.4,228.3c-6.7-0.5-19.5-1.7-29.6-4.4c-4.2-1.1-8.1-2.3-11.6-3.6c13.7,2.7,28.1,3.3,28.8,3.3l4.7,0.2v-43.6   l0.1,0h0.2v-0.3c2.6,0.5,5.1,0.7,7.4,0.8V228.3z"/><path class="st5" d="M409.5,171.8c-2.9,0.2-7,0-11.5-0.8v-13.8l-5,0.5c-5.7,0.6-19.4-1.1-33.8-8.3c-2.1-1.1-4.2-2.3-6.2-3.6l0,0   c-20.8-24.3-18.4-49.1-18.4-49.3l0.6-5h-17c-0.6-5.6-0.3-9.1-0.3-9.1l0.6-5h-67.2v226.7c0,7.4,0,14.3-2.3,21   c-4.1,11.5-12.5,20.8-22.6,24.9c-14.8,5.9-25.8,5.8-38-0.3c-5.4-7.7-8-17.3-8-28.6c1.8-14.8,7-23.6,19.9-33.6   c16.2-11.9,37-5.3,37.2-5.2l5.9,2V216l-3.8-0.6c-4.3-0.7-8.7-1.1-13-1.1v-0.2v-12l-3.9-0.6c-11.3-1.6-22.7-1.5-33.9,0.5   c-7.4,1.3-14.7,3.4-21.6,6.3c-11.2,4.3-21.5,10.4-30.7,18.2c-10.4,8.9-19,19.5-25.7,31.4c-4.5,7.8-12.3,24.7-13.3,50.2   c-0.6,15.9,4,32.2,6.3,39.1v0.2l0.2,0.6c0.6,1.7,6.2,16.7,16.4,29.7c7.3,9.1,15.8,17.1,25.3,23.8c0,0,0,0,0,0l0.2,0.2l0.3,0.2   c5.2,5.2,10.9,10,17,14.2c25.5,17.2,53,18.4,60,18.4c0.9,0,1.5,0,1.7,0.1c0.4-0.1,0.9-0.1,1.5-0.1c6.6-0.2,24.3-0.8,43.9-10   c23.3-10.9,36.5-27,37.1-27.7c0.1-0.2,0.3-0.4,0.6-0.7c3.1-3.8,12.9-15.4,19.4-32.5c5.4-13.9,7.3-30.5,7.3-38.2V216   c1,0.7,2.1,1.4,3.1,2.1c0.6,0.4,14.3,9,35.7,14.7c15.4,4.1,35.5,5,36.3,5l4.7,0.2v-66.7L409.5,171.8z M325.5,100.4   c0,4.9,0.8,12.7,3.9,22.1c-5.1-8.1-8-15.8-9.6-22.1H325.5z M229.6,358.4c12.4-5,22.8-16.3,27.7-30.3c2.9-8.1,2.9-16.2,2.9-24V86.4   h48.6c0,1.4,0.1,3.1,0.3,5H268h-0.1V318c0,7.3,0,14.3-2.3,21c-4,11.5-12.5,20.8-22.6,24.9c-14.6,5.8-25.8,5.8-38.2-0.5   C212.6,363.7,220.7,362,229.6,358.4z M226.5,270.1L226.5,270.1l0.1,0v-46.8v-0.1c2.6,0.1,5.1,0.2,7.6,0.5v48.5   c-8.7-1.6-25.2-2.6-39.5,7.9l-0.1,0.1c-12.4,9.6-21.1,20-23.4,40v0.5c0,6,0.7,11.7,2,16.9c-2.5-3.1-4.5-6.6-6.1-10.4   c0-0.1-0.1-0.2-0.1-0.3c-0.2-0.6-0.5-1.2-0.7-1.9c-0.1-0.3-0.2-0.5-0.3-0.8c-0.2-0.5-0.3-1-0.4-1.5c-0.2-0.8-0.4-1.5-0.6-2.3   c0-0.1-0.1-0.3-0.1-0.4c-0.6-2.6-1-5.3-1.2-8.2c0-0.1,0-0.3,0-0.4c0-0.6-0.1-1.3-0.1-1.9c0-0.8,0-1.6,0-2.5   c0.1-0.8,0.2-1.5,0.3-2.3c0-0.2,0-0.3,0.1-0.5c0-0.1,0-0.1,0-0.2c2.1-13.1,7.4-21.4,19.5-30.7c11.6-8.4,25.5-7.5,32.6-6.3   c2.7,0.5,4.4,1,4.5,1.1L226.5,270.1z M112.7,345.7l-0.3-0.7c-2-6.1-6.6-21.7-6-36.5c1-24.5,8.9-40.4,12.2-46.2   c6.2-11.1,14.2-20.9,23.7-29.1c8.4-7,17.8-12.6,28.1-16.6h0.1c6.4-2.6,13-4.6,19.8-5.8c9-1.5,18.1-1.8,27.2-0.9v4.5   c-11.6,0.7-22.9,3.3-33.6,7.8c-11.2,4.3-21.5,10.4-30.7,18.2c-0.5,0.4-0.9,0.8-1.4,1.3c-9.8,8.7-18,18.8-24.4,30.2   c-3.6,6.3-12.2,23.8-13.3,50.3c-0.6,15.4,3.6,31,6.3,39.2l0.2,0.6c0,0,0.1,0.1,0.1,0.2C116.9,355.7,114.1,349.5,112.7,345.7z    M325.7,325.4c0,6.8-1.8,22.3-6.7,34.9c-6,15.7-14.9,26.4-17.9,29.9c-0.3,0.3-0.5,0.6-0.7,0.8c-0.1,0.2-12.5,15.2-33.9,25.3   c-17.9,8.4-33.7,8.9-40.4,9.1c-0.6,0.1-1.2,0.1-1.6,0.1c-0.2,0-17.1,0.5-36.7-6.9c2.7,0.5,5.2,0.9,7.5,1.1c0.2,0,0.5,0.1,0.7,0.1   c0.1,0,0.3,0,0.4,0c6.8,0.8,11.2,0.6,11.8,0.7c0.4-0.1,0.9-0.1,1.5-0.1c6.6-0.2,24.3-0.8,43.9-10c23.3-11,36.5-27.1,37.1-27.8   c0.2-0.2,0.4-0.5,0.7-0.8c3.2-3.9,12.9-15.5,19.4-32.4c5.3-13.8,7.3-30.8,7.3-38.2V201.9c1,0.7,2.1,1.4,3.1,2.1   c0.1,0.1,1.7,1.1,4.5,2.6V325.4z M326.1,196.5c-2.9-1.9-9.5-6.3-10.3-6.7l-6.7-3.9v0.1l-0.2-0.1v125.4c0,6.9-1.8,22.4-6.7,35   c-6,15.7-14.9,26.4-17.9,29.9c-0.3,0.3-0.5,0.6-0.7,0.8c0,0-0.5,0.6-1.3,1.5c-3.8,4.2-15.2,15.5-32.5,23.7   c-17.9,8.4-33.7,8.9-40.4,9.1c-0.6,0.1-1.2,0.1-1.6,0.1c-0.3,0-29.7,1-56.1-16.8h-0.1c-2.6-2.7-5.2-5.6-7.6-8.9   c-4.6-5.9-8.2-12.2-10.7-17.4c-2.1-4.3-3.5-7.7-4-9l-0.1-0.4c-2-6-6.6-21.6-6-36.4c1-24.6,8.9-40.4,12.2-46.2   c6.2-11,14.2-20.8,23.7-29c8.4-7,17.8-12.6,28.1-16.6h0.1c9.6-4,19.7-6.4,30-7.1V258c-8.6-1.6-25.1-2.6-39.4,7.9l-0.1,0.1   c-12.4,9.6-21.1,20-23.4,40v0.5c-0.1,16.5,5,30.3,14.8,40.3c2.3,2.4,4.8,4.5,7.6,6.5l0.1,0.1c1.8,1.2,3.5,2.2,5.2,3.1   c0.3,0.3,0.5,0.7,0.8,1c2.9,3.6,6.4,6.9,10.3,9.6l0.1,0.1c2,1.3,3.9,2.5,5.9,3.5c0,0,0.1,0,0.1,0c0.5,0.2,0.9,0.5,1.4,0.7   c0.2,0.1,0.5,0.3,0.7,0.4c0.1,0,0.2,0.1,0.3,0.1c7.3,3.6,14.4,5.4,21.8,5.4c7.2,0,14.7-1.7,23.1-5.1c12.4-5,22.8-16.3,27.7-30.3   c2.8-8.2,2.8-16.4,2.8-24.3V100.4h33.3c2.3,10.2,7.5,24,19.5,37.7l0.1,0.1c5.2,5.6,11.1,10.6,17.4,14.8   c3.1,3.3,12.3,12.5,24.2,18.4c5.5,2.8,11.2,5,17.1,6.6v36.4c-6.8-0.5-19.4-1.7-29.4-4.4C339.3,204.7,326.2,196.5,326.1,196.5z    M405.4,228.3c-6.7-0.5-19.5-1.7-29.6-4.4c-4.2-1.1-8.1-2.3-11.6-3.6c13.7,2.7,28.1,3.3,28.8,3.3l4.7,0.2v-43.6l0.1,0h0.2v-0.3   c2.6,0.5,5.1,0.7,7.4,0.8V228.3z"/></g></svg>